<svg id="podhod-logo-com" viewBox="0 0 166 24" version="1.1" xmlns="http://www.w3.org/2000/svg" xmlns:xlink="http://www.w3.org/1999/xlink" x="0px" y="0px" width="166px" height="24px" enable-background="new 0 0 166 24" xml:space="preserve" alt="PODHOD.com">
<g id="podhod-logo-com-group">
<path class="podhod-logo-com-sign" d="M 7.055 14 L 7.0555 24 L 10.9688 24 L 10.9688 3.9844 L 14 3.9844 L 14 24 L 18 24 L 18 0 L 7.0555 0 L 7 0 C 3.134 0 0 3.134 0 7 C 0 10.866 3.134 14 7 14 L 7.055 14 Z" fill="#0077ff"/>
<path id="podhod-logo-com-text" d="M 112.6 20 C 112.6 21.3255 113.6745 22.4 115 22.4 C 116.3255 22.4 117.4 21.3255 117.4 20 C 117.4 18.6745 116.3255 17.6 115 17.6 C 113.6745 17.6 112.6 18.6745 112.6 20 ZM 140.8827 18 C 138.5831 18 138.9375 14 138.9375 14 L 138.9375 10 C 138.9375 10 138.4955 6 140.8827 6 C 143.2698 6 142.9375 10 142.9375 10 L 142.9375 14 C 142.9375 14 143.1823 18 140.8827 18 ZM 140.9375 22 C 147.6042 22 146.9375 14 146.9375 14 L 146.9375 10 C 146.9375 10 147.2625 2 140.9375 2 C 134.3375 2 134.9375 10 134.9375 10 L 134.9375 14 C 134.9375 14 134.5375 22 140.9375 22 ZM 126 22 C 130.5867 22 131.7004 18.2129 131.95 15.85 L 127.955 15.28 C 127.8227 16.4503 127.3769 18 125.9452 18 C 123.6456 18 124 14 124 14 L 124 10 C 124 10 123.558 6 125.9452 6 C 127.4301 6 127.8651 7.55 127.98 8.72 L 131.885 8.16 C 131.5593 5.7977 130.3576 2 126 2 C 119.4 2 120 10 120 10 L 120 14 C 120 14 119.6 22 126 22 ZM 150 2.5333 L 150 21.4375 C 150 21.9708 150.575 22 150.575 22 L 153.4333 22 C 153.9875 22 154 21.5 154 21.5 L 154 9.393 L 157.5125 14.7875 C 158 15.5125 158.4625 14.7875 158.4625 14.7875 L 162 9.393 L 162 21.4333 C 162 22 162.6 22 162.6 22 L 165.4667 22 C 165.9875 22 166 21.4667 166 21.4667 L 166 2.6334 C 166 2 165.4333 2 165.4333 2 L 162.5667 2 C 162.025 2 161.635 2.5677 161.635 2.5677 L 158 8.222 L 154.3401 2.529 C 153.8111 2 153.4 2 153.4 2 L 150.5333 2 C 150 2 150 2.5333 150 2.5333 ZM 110 11.9528 C 109.9948 2.4307 104.4624 2 102.1883 2 C 99.9141 2 98.6655 2.1313 98.6655 2.1313 C 98.6655 2.1313 98 2.2993 98 2.9198 L 98 21.0802 C 98 21.7007 98.6655 21.8687 98.6655 21.8687 C 98.6655 21.8687 99.9435 22 102.1228 22 C 104.3022 22 109.9948 21.4749 110 11.9528 ZM 102.4183 6.0016 C 105.8766 6.0016 106.005 10.3768 106.005 11.9528 C 106.005 13.5288 105.8766 17.9984 102.4183 17.9984 C 102.4183 17.9984 101.9987 18.0394 101.9987 17.5387 L 101.9987 6.4613 C 101.9987 5.9606 102.4183 6.0016 102.4183 6.0016 ZM 65 11.9528 C 64.9948 2.4307 59.4624 2 57.1883 2 C 54.9141 2 53.6655 2.1313 53.6655 2.1313 C 53.6655 2.1313 53 2.2993 53 2.9198 L 53 21.0802 C 53 21.7007 53.6655 21.8687 53.6655 21.8687 C 53.6655 21.8687 54.9435 22 57.1228 22 C 59.3022 22 64.9948 21.4749 65 11.9528 ZM 57.4183 6.0016 C 60.8766 6.0016 61.005 10.3768 61.005 11.9528 C 61.005 13.5288 60.8766 17.9984 57.4183 17.9984 C 57.4183 17.9984 56.9987 18.0394 56.9987 17.5387 L 56.9987 6.4613 C 56.9987 5.9606 57.4183 6.0016 57.4183 6.0016 ZM 88.9452 18 C 86.6456 18 86.9688 14.0313 86.9688 14.0313 L 86.9688 10.0313 C 86.9688 10.0313 86.558 6 88.9452 6 C 91.3324 6 91 10 91 10 L 91 14 C 91 14 91.2448 18 88.9452 18 ZM 89 22 C 95.6667 22 95 14 95 14 L 95 10 C 95 10 95.325 2 89 2 C 82.4 2 83 10 83 10 L 83 14 C 83 14 82.6 22 89 22 ZM 43.9452 18 C 41.6456 18 41.9688 14.0156 41.9688 14.0156 L 41.9688 10.0156 C 41.9688 10.0156 41.558 6 43.9452 6 C 46.3324 6 46 10 46 10 L 46 14 C 46 14 46.2448 18 43.9452 18 ZM 44 22 C 50.6667 22 50 14 50 14 L 50 10 C 50 10 50.325 2 44 2 C 37.4 2 38 10 38 10 L 38 14 C 38 14 37.6 22 44 22 ZM 68 2.6 L 68 21.425 C 68 22 68.675 22 68.675 22 L 71.3438 22 C 71.9188 22 71.9688 21.35 71.9688 21.35 L 71.9688 13.9688 L 76 13.9688 L 76 21.375 C 76 22 76.55 22 76.55 22 L 79.45 22 C 79.95 22 80 21.4 80 21.4 L 80 2.7 C 80 2 79.35 2 79.35 2 L 76.575 2 C 75.975 2 76 2.625 76 2.625 L 76 10 L 71.9688 10 L 71.9688 2.625 C 71.9688 2 71.3438 2 71.3438 2 L 68.65 2 C 68.025 2 68 2.6 68 2.6 ZM 26.9884 6.0358 C 26.9884 6.0358 31.8007 4.905 31.8007 8.0313 C 31.8007 11.2241 26.987 10 26.987 10 L 26.9884 6.0358 ZM 23.0022 2.6434 L 23.0022 21.3016 C 23.0022 22 23.6687 22 23.6687 22 L 26.4219 22 C 26.4219 22 26.9884 21.975 26.9884 21.3681 L 26.9884 14.0179 C 26.9884 14.0179 35.8 15.0152 35.8 8.0309 C 35.8 3.5438 32.5673 2 30 2 L 27 2 L 23.5374 2.018 C 22.9355 2.078 23.0022 2.6434 23.0022 2.6434 Z" fill="#000000"/>
</g>
</svg>