<?xml version="1.0" standalone="no"?>
<!-- Generator: Adobe Fireworks 10, Export SVG Extension by Aaron Beall (http://fireworks.abeall.com) . Version: 0.6.1  -->
<!DOCTYPE svg PUBLIC "-//W3C//DTD SVG 1.1//EN" "http://www.w3.org/Graphics/SVG/1.1/DTD/svg11.dtd">
<svg id="podhod_logo_60px.fw-Page%201" viewBox="0 0 2385 810" style="background-color:#ffffff00" version="1.1"
	xmlns="http://www.w3.org/2000/svg" xmlns:xlink="http://www.w3.org/1999/xlink" xml:space="preserve"
	x="0px" y="0px" width="2385px" height="810px"
>
	<g id="Layer%201">
		<path d="M 2259 60 C 2259 79.8825 2275.1174 96.0004 2295 96.0004 C 2314.8826 96.0004 2331 79.8825 2331 60 C 2331 40.1175 2314.8826 23.9996 2295 23.9996 C 2275.1174 23.9996 2259 40.1175 2259 60 ZM 1154.9927 487.9797 L 1215.915 619.9805 L 1143.507 774.1617 C 1140.9375 780 1146.375 780 1146.375 780 L 1203.3751 780 L 1209.2251 780 L 1212.001 773.9859 L 1249.5 692.7448 L 1287.0046 773.9978 C 1289.6251 780 1294.8749 780 1294.8749 780 L 1352.6251 780 C 1359.0001 780 1355.281 773.7103 1355.281 773.7103 L 1283.085 619.9805 L 1344.7865 486.2906 C 1347.7501 480.1877 1340.9999 480 1340.9999 480 L 1287.1875 480 C 1281.5625 480 1278.7076 486.2558 1278.7076 486.2558 L 1249.5 548.4604 L 1220.2245 486.1111 C 1216.3124 479.8123 1212.1875 480 1212.1875 480 L 1158.1874 480 C 1150.3125 480 1154.9927 487.9797 1154.9927 487.9797 ZM 1725 720 L 1660 720 C 1660 720 1658.0625 540 1694.0625 540 L 1725 540 L 1725 720 ZM 1594.6875 780 L 1774.8749 780 C 1784.0625 780 1785 770 1785 770 L 1785 490 C 1785 480.625 1774.6875 480 1774.6875 480 L 1664.0625 480 C 1664.0625 480 1605 465 1605 720 L 1595.0624 720 C 1586.0626 720 1585 730 1585 730 L 1585 770 C 1585 778.6252 1594.6875 780 1594.6875 780 ZM 1468.2404 720 C 1433.7469 720 1435 660 1435 660 L 1435 600 C 1435 600 1432.4329 540 1468.2404 540 C 1504.0479 540 1500 600 1500 600 L 1500 660 C 1500 660 1502.7338 720 1468.2404 720 ZM 1469.0625 780 C 1569.0625 780 1560 660 1560 660 L 1560 600 C 1560 600 1563.9374 480 1469.0625 480 C 1370.0624 480 1380 600 1380 600 L 1380 660 C 1380 660 1373.0625 780 1469.0625 780 ZM 1050 720 L 990 720 C 990 720 984.0001 540 1020 540 L 1050 540 L 1050 720 ZM 920.625 780 L 1100.8125 780 C 1110 780 1110 771.3748 1110 771.3748 L 1110 489.375 C 1110 480 1100.625 480 1100.625 480 L 990 480 C 990 480 930 465 930 720 L 920.9999 720 C 912.0001 720 910 730 910 730 L 910 770 C 910 778.6252 920.625 780 920.625 780 ZM 794.1779 720 C 759.6844 720 765 660 765 660 L 765 600 C 765 600 758.3704 540 794.1779 540 C 829.9855 540 825 600 825 600 L 825 660 C 825 660 828.6713 720 794.1779 720 ZM 795 780 C 895.0001 780 885 660 885 660 L 885 600 C 885 600 889.8749 480 795 480 C 695.9999 480 705 600 705 600 L 705 660 C 705 660 699.0001 780 795 780 ZM 487.8749 480 C 487.8749 480 480 479.6246 480 489.375 L 480 770.625 C 480 770.625 480 780 489.7499 780 L 531.7499 780 C 531.7499 780 540 780 540 771.3748 L 540 540 L 600 540 L 600 770.2496 C 600 770.2496 600 780 609.0001 780 L 650.9999 780 C 650.9999 780 660 780 660 770.2496 L 660 489.7504 C 660 489.7504 660 480 649.8749 480 L 487.8749 480 ZM 1380 127.9999 L 1380 411.5625 C 1380 419.5624 1388.6249 420 1388.6249 420 L 1431.5 420 C 1439.8126 420 1440 412.5 1440 412.5 L 1440 230.8951 L 1492.6874 311.8121 C 1500 322.6877 1506.9374 311.8121 1506.9374 311.8121 L 1560 230.8951 L 1560 411.5002 C 1560 420 1569.0001 420 1569.0001 420 L 1611.9998 420 C 1619.8126 420 1620 412.0001 1620 412.0001 L 1620 129.5004 C 1620 120 1611.5 120 1611.5 120 L 1568.5 120 C 1560.3749 120 1554.5251 128.5163 1554.5251 128.5163 L 1500 213.3298 L 1445.1011 127.9349 C 1437.1661 120 1430.9999 120 1430.9999 120 L 1388.0002 120 C 1380 120 1380 127.9999 1380 127.9999 ZM 2205 129.7504 L 2205 411.3748 C 2205 420 2213.6252 420 2213.6252 420 L 2254.8752 420 C 2254.8752 420 2265 420 2265 410.625 L 2265 362.7155 L 2325 301.29 L 2325 410.2496 C 2325 420 2334.75 420 2334.75 420 L 2376.7502 420 C 2385 420 2385 411.3748 2385 411.3748 L 2385 128.9996 C 2385 120 2375.25 120 2375.25 120 L 2334.75 120 C 2324.625 120 2325 129.375 2325 129.375 L 2325 215.7147 L 2265 274.3204 L 2265 129.7504 C 2265 120 2256 120 2256 120 L 2214 120 C 2205 120 2205 129.7504 2205 129.7504 ZM 2108.2517 120 C 2103.6128 120 2099.8516 123.761 2099.8516 128.4 L 2099.8516 411.6 C 2099.8516 416.239 2103.6128 420 2108.2517 420 L 2151.4517 420 C 2156.0908 420 2159.8516 416.239 2159.8516 411.6 L 2159.8516 128.4 C 2159.8516 123.761 2156.0908 120 2151.4517 120 L 2108.2517 120 ZM 1665 128.9996 L 1665 411.3748 C 1665 420 1675.1251 420 1675.1251 420 L 1715.625 420 C 1724.2499 420 1725 410.2496 1725 410.2496 L 1725 300 L 1785 300 L 1785 410.625 C 1785 420 1793.2498 420 1793.2498 420 L 1836.7502 420 C 1844.2502 420 1845 411.0004 1845 411.0004 L 1845 130.5002 C 1845 120 1835.2501 120 1835.2501 120 L 1793.6252 120 C 1784.6251 120 1785 129.375 1785 129.375 L 1785 240 L 1725 240 L 1725 129.375 C 1725 120 1715.625 120 1715.625 120 L 1674.7499 120 C 1665.3749 120 1665 128.9996 1665 128.9996 ZM 1155 129.375 L 1155 210 C 1155 276.0279 1197.1251 300.1661 1231.8672 300.1661 C 1255.3125 300.1661 1275 300 1275 300 C 1275 344.4853 1252.978 360.0502 1235.3119 360.0502 C 1223.4375 360.0502 1215 360 1215 360 L 1165 360 C 1159.4771 360 1155 364.4771 1155 370 L 1155 410 C 1155 415.5229 1159.4771 420 1165 420 L 1245 420 C 1341.7499 420 1335 300 1335 300 L 1335 128.6252 C 1335 120 1327.1251 120 1327.1251 120 L 1283.2501 120 C 1274.6251 120 1275 127.8754 1275 127.8754 L 1275 240 L 1245 240 C 1209.7499 240 1215 210 1215 210 L 1215 127.8754 C 1215 120 1206.75 120 1206.75 120 L 1164.7499 120 C 1155 120 1155 129.375 1155 129.375 ZM 540.022 180.5365 C 540.022 180.5365 612.011 163.5745 612.011 210.4697 C 612.011 258.3618 540 240 540 240 L 540.022 180.5365 ZM 480.033 129.6506 L 480.033 409.5236 C 480.033 420 490.031 420 490.031 420 L 531.5236 420 C 531.5236 420 540.022 419.6255 540.022 410.5216 L 540.022 300.2682 C 540.022 300.2682 672.0001 315.228 672.0001 210.4633 C 672.0001 143.9749 624.427 124.7139 586.4005 119.9384 C 561.0847 116.7592 488.0612 120.2701 488.0612 120.2701 C 479.0332 121.17 480.033 129.6506 480.033 129.6506 ZM 960 420 L 1050 420 C 1050 420 1110 420 1110 330 C 1110 302.4023 1104.3535 283.2678 1096.53 270 C 1104.3535 256.7322 1110 237.5977 1110 210 C 1110 120 1050 120 1050 120 L 960 120 C 934.6729 120 930.6793 158.7881 930.0867 173.9905 C 930 180.3754 936.7499 180 936.7499 180 L 1025.9999 180 C 1025.9999 180 1050 176.0001 1050 213.0002 C 1050 230.5261 1043.9419 237.507 1037.5648 240 L 967.8749 240 C 960 240 960 247.8754 960 247.8754 L 960 292.8754 C 960 300 967.1251 300 967.1251 300 L 1030.215 300 C 1037.0986 300.7819 1050 305.8667 1050 333.0002 C 1050 363.75 1022.9999 360 1022.9999 360 L 937.5 360 C 929.6251 360 930.0348 364.0659 930.1021 365.994 C 932.0082 420.6995 960 420 960 420 ZM 1949.8737 359.4635 L 1949.8737 299.5972 C 1949.8737 299.5972 2021.8625 281.6382 2021.8625 329.5303 C 2021.8625 376.4255 1949.8737 359.4635 1949.8737 359.4635 ZM 1889.8846 410.3494 C 1889.8846 410.3494 1888.8849 418.83 1897.9128 419.7299 L 1950 420 C 1950 420 1958.6847 419.9938 1970 420 C 2006.3942 420.0198 2081.8516 411.0218 2081.8516 326.5375 C 2081.8516 221.7719 1949.8737 239.7318 1949.8737 239.7318 L 1949.8737 129.4784 C 1949.8737 120.3744 1941.3748 120 1941.3748 120 L 1899.8822 120 C 1899.8822 120 1889.8846 120 1889.8846 130.4764 L 1889.8846 410.3494 ZM 825 360 C 825 360 752.0814 376.4255 752.0814 329.5303 C 752.0814 281.6382 825 300 825 300 L 825 360 ZM 885 410 L 885 210 C 885 120 773.3098 120 770.0924 120 C 766.875 120 735.997 121.6882 734.0923 126.0004 C 732.5468 129.4992 716.8251 161.6366 710.9496 173.6351 C 709.7351 176.115 710.9875 178.1934 713.7476 178.2778 C 713.7476 178.2778 761.1951 178.2663 769.6875 179.0625 C 779.6875 180 825 182.1875 825 215 C 825 216.8448 824.8347 239.7061 825 240 C 824.8188 239.9641 798.125 239.0625 789.9697 239.9123 C 750.6656 244.0078 692.0924 259.89 692.0924 329.5367 C 692.0924 440.289 824.0703 422.3227 824.0703 422.3227 L 870.0131 420.3351 C 877.8749 420.3351 885 414.375 885 410 Z" fill="#000000"/>
		<path d="M 151.6667 90.0009 C 151.6667 90.0009 0 88.0723 0 254.572 C 0 424.286 150 440 150 440 L 150 810 L 240 810 L 240 180 L 300 180 L 300 810 L 390 810 L 390 90.0009 L 151.6667 90.0009 Z" fill="#0077ff"/>
	</g>
</svg>