<?xml version="1.0" encoding="utf-8"?>
<!DOCTYPE svg PUBLIC "-//W3C//DTD SVG 1.1//EN" "http://www.w3.org/Graphics/SVG/1.1/DTD/svg11.dtd">
<svg version="1.1" id="podhod-logo-small" xmlns="http://www.w3.org/2000/svg" xmlns:xlink="http://www.w3.org/1999/xlink" x="0px"
	 y="0px" width="76px" height="28px" viewBox="0 0 76 28" enable-background="new 0 0 76 28" xml:space="preserve" alt="Студия дизайна «Разумный подход»">
<path class="text" d="M60,13.678c0,0-0.037,0.283,0.264,0.313l1.732,0.086
	c0,0,4.398,0.499,4.398-3.192c0-3.492-4.398-2.894-4.398-2.894V4.316C61.996,4.013,61.713,4,61.713,4H60.33c0,0-0.33,0-0.33,0.349
	V13.678z M61.996,11.982V9.986c0,0,2.399-0.599,2.399,0.998C64.396,12.547,61.996,11.982,61.996,11.982z M31,14h3c0,0,2,0,2-3
	c0-0.92-0.188-1.558-0.449-2C35.812,8.558,36,7.92,36,7c0-3-2-3-2-3h-3c-0.844,0-0.978,1.293-0.997,1.8C30,6.013,30.225,6,30.225,6
	H33.2c0,0,0.8-0.133,0.8,1.1c0,0.584-0.202,0.817-0.414,0.9h-2.323C31,8,31,8.263,31,8.263v1.5C31,10,31.237,10,31.237,10h2.104
	C33.57,10.026,34,10.195,34,11.1c0,1.025-0.9,0.9-0.9,0.9h-2.85c-0.263,0-0.249,0.136-0.247,0.2C30.066,14.023,31,14,31,14z
	 M28.969,13.7L28.97,7c0-3-2.63-3-3.8-3s-1.2,0.2-1.2,0.2l-0.845,1.737L25.17,6c0,0,1.8,0,1.8,1.094
	c0,0.062-0.006,0.888-0.001,0.897c-0.018-0.004-4.399-0.499-4.399,2.993c0,3.692,4.399,3.093,4.399,3.093l1.531-0.066
	C28.763,14.011,28.969,13.7,28.969,13.7z M26.969,11.982c0,0-2.399,0.565-2.399-0.998c0-1.597,2.399-0.998,2.399-0.998V11.982z
	 M16.001,4.322v9.329C16.001,14,16.334,14,16.334,14h1.384c0,0,0.283-0.013,0.283-0.316V10c0,0,4.399,0.508,4.399-2.984
	c0-3.692-4.399-3.093-4.399-3.093l-1.732,0.086C15.968,4.039,16.001,4.322,16.001,4.322z M18.001,6c0,0,2.399-0.547,2.399,1.016
	C20.4,8.612,18.001,8,18.001,8V6z M37,4.313V7c0,3.7,4,3,4,3c0,2.434-2,2-2,2h-2v2h3c3.225,0,3-4,3-4V4.288C43,4,42.737,4,42.737,4
	h-1.462C40.987,4,41,4.263,41,4.263V8h-1c-1.175,0-1-1-1-1V4.263C39,4,38.725,4,38.725,4h-1.399C37,4,37,4.313,37,4.313z M53,4.3
	v9.413C53,14,53.338,14,53.338,14h1.35C54.975,14,55,13.675,55,13.675V10h2v3.688C57,14,57.275,14,57.275,14h1.449
	C58.975,14,59,13.7,59,13.7V4.35C59,4,58.675,4,58.675,4h-1.388C56.987,4,57,4.313,57,4.313V8h-2V4.313C55,4,54.688,4,54.688,4
	h-1.362C53.013,4,53,4.3,53,4.3z M67.275,4C67.12,4,67,4.125,67,4.28v9.439c0,0.155,0.12,0.28,0.275,0.28h1.439
	c0.155,0,0.28-0.125,0.28-0.28V4.28c0-0.155-0.125-0.28-0.28-0.28H67.275z M70,4.325v9.387C70,14,70.287,14,70.287,14h1.375
	c0,0,0.338,0,0.338-0.313v-1.597l2-2.048v3.632C74,14,74.325,14,74.325,14h1.399C76,14,76,13.712,76,13.712V4.3
	C76,4,75.675,4,75.675,4h-1.35C73.987,4,74,4.313,74,4.313V7.19l-2,1.954V4.325C72,4,71.7,4,71.7,4h-1.4C70,4,70,4.325,70,4.325z
	 M44,4.267v9.452C44,13.985,44.287,14,44.287,14h1.43C45.994,14,46,13.75,46,13.75V7.696l1.756,2.697c0.244,0.363,0.476,0,0.476,0
	L50,7.696v6.021C50,14,50.3,14,50.3,14h1.434C51.994,14,52,13.733,52,13.733V4.316C52,4,51.717,4,51.717,4h-1.434
	c-0.271,0-0.466,0.284-0.466,0.284L48,7.111l-1.83-2.846C45.905,4,45.7,4,45.7,4h-1.434C44,4,44,4.267,44,4.267z M16.263,16
	c0,0-0.263-0.013-0.263,0.313v9.375c0,0,0,0.313,0.325,0.313h1.4c0,0,0.275,0,0.275-0.287V18h2v7.675c0,0,0,0.325,0.3,0.325h1.4
	c0,0,0.3,0,0.3-0.325v-9.35c0,0,0-0.325-0.337-0.325H16.263z M26,26c3.333,0,3-4,3-4v-2c0,0,0.163-4-3-4c-3.3,0-3,4-3,4v2
	C23,22,22.8,26,26,26z M25.973,24C24.823,24,25,22,25,22v-2c0,0-0.221-2,0.973-2S27,20,27,20v2C27,22,27.122,24,25.973,24z
	 M29.688,26h6.006C36,26,36,25.713,36,25.713v-9.4C36,16,35.688,16,35.688,16H32c0,0-2-0.5-2,8h-0.3c-0.3,0-0.3,0.275-0.3,0.275
	v1.438C29.4,26,29.688,26,29.688,26z M34,24h-2c0,0-0.2-6,1-6h1V24z M46.969,26C50.303,26,50,22,50,22v-2c0,0,0.131-4-3.031-4
	C43.669,16,44,20,44,20v2C44,22,43.769,26,46.969,26z M47,24c-1.15,0-1-2-1-2v-2c0,0-0.193-2,1-2s1,2,1,2v2C48,22,48.149,24,47,24z
	 M50.656,26h6.006C56.969,26,57,25.713,57,25.713v-9.4C57,16,56.656,16,56.656,16H53c0,0-2-0.5-2,8h-0.331
	c-0.3,0-0.3,0.275-0.3,0.275v1.438C50.369,26,50.656,26,50.656,26z M55,24h-2c0,0-0.2-6,1-6h1V24z M37,16.266l2.03,4.4l-2.413,5.14
	C36.531,26,36.713,26,36.713,26h1.899h0.195l0.093-0.2l1.25-2.708L41.4,25.8c0.087,0.2,0.262,0.2,0.262,0.2h1.926
	c0.212,0,0.088-0.21,0.088-0.21l-2.406-5.124l2.057-4.456C43.425,16.006,43.2,16,43.2,16h-1.794c-0.188,0-0.282,0.209-0.282,0.209
	l-0.974,2.073l-0.977-2.079C39.044,15.994,38.906,16,38.906,16h-1.8C36.844,16,37,16.266,37,16.266z M71.8,2
	c0,0.663,0.537,1.2,1.2,1.2s1.2-0.537,1.2-1.2S73.663,0.8,73,0.8S71.8,1.337,71.8,2z"/>
<path class="sign" fill="#0077FF" d="M5,3c0,0-5-0.064-5,5.486c0,5.657,5,6.171,5,6.171V27h3
	V6h2v21h3V3H5z"/>
</svg>
