<svg version="1.1" id="podhod_logo_l" xmlns="http://www.w3.org/2000/svg" xmlns:xlink="http://www.w3.org/1999/xlink" x="0px" y="0px" width="115px" height="38px" viewBox="0 0 115 38" enable-background="new 0 0 115 38" xml:space="preserve" class="logo" alt="Студия дизайна «Разумный подход»">
<path class="text" d="M46,19h4c0,0,4,0,4-4.5c0-2.5-1-3.5-1-3.5s0.922-0.939,0.922-2.5C53.922,4,50,4,50,4h-4c0,0-1-0.029-1,3h4.5
C50.33,7,51,7.67,51,8.5S50.33,10,49.5,10H47c-0.55,0-1,0.45-1,1v1c0,0.55,0.45,1,1,1h2.5c0.83,0,1.5,0.67,1.5,1.5S50.33,16,49.5,16
H46h-1C45,19,46,19,46,19z M43,8c0-4-6-4-6-4h-2l-1,3h3c0,0,3-0.16,3,1v2h-2c0,0-4.922-0.02-4.922,4.5C33.078,18.84,38,19,38,19h4
c0.55,0,1-0.45,1-1V8z M40,16h-2.5c0,0-1.5,0-1.5-1.5s1.5-1.5,1.5-1.5H40V16z M23,5v13c0,1,1,1,1,1h1c0.55,0,1-0.45,1-1v-5h2
c0,0,5,0,5-4.5S28,4,28,4h-4C23,4,23,5,23,5z M26,7h3c0,0,1,0.02,1,1.5S29,10,29,10h-3V7z M57,4c-0.55,0-1,0.45-1,1v4
c0,2.21,1.79,4,4,4h2v1.5c0,0.83-0.67,1.5-1.5,1.5H56l1,3h3c5,0,5-5,5-5V5c0-0.55-0.45-1-1-1h-1c-0.55,0-1,0.45-1,1v5h-1.5
C59.67,10,59,9.33,59,8.5V5c0-0.55-0.45-1-1-1H57z M80,18c0,1,1,1,1,1h1c1,0,1-1,1-1v-5h3v5c0,1,1,1,1,1h1c0.98,0,1-1,1-1V5
c0-0.55-0.45-1-1-1h-1c-0.55,0-1,0.45-1,1v5h-3V5c0-0.55-0.45-1-1-1h-1c-0.55,0-1,0.45-1,1V18z M102,4c-0.55,0-1,0.45-1,1v13
c0,1,1,1,1,1h1c1,0,1-1,1-1V5c0-0.55-0.45-1-1-1H102z M106,18c0,1,1,1,1,1h1c0,0,1,0,1-1v-3l3-3v6c0,1,1,1,1,1h1c1,0,1-1,1-1V5
c0-1-1-1-1-1h-1c-1,0-1,1-1,1v3l-3,3V5c0-0.55-0.45-1-1-1h-1c-0.55,0-1,0.45-1,1V18z M68,4c-0.55,0-1,0.45-1,1v13c0,0.55,0.45,1,1,1
h1c0.55,0,1-0.45,1-1V9l2.5,5L75,9v9c0,1,1,1,1,1h1c0.98,0,1-1,1-1V5c0-0.55-0.45-1-1-1h-2l-2.5,5L70,4H68z M24,22c0,0-1,0-1,1v13
c0,0.55,0.45,1,1,1h1c0.55,0,1-0.45,1-1V25h3v11c0,0.55,0.45,1,1,1h1c0.55,0,1-0.45,1-1V23c0,0,0-1-1-1H24z M38.5,37
c4.561,0,4.5-6,4.5-6v-3c0,0,0-6-4.5-6S34,28,34,28v3C34,31,33.939,37,38.5,37z M38.5,34c-1.561,0-1.5-2-1.5-2v-5c0,0-0.12-2,1.5-2
c1.63,0,1.5,2,1.5,2v5C40,32,40.061,34,38.5,34z M53,37c0.55,0,1-0.45,1-1V23c0-0.55-0.45-1-1-1h-5c0,0-3,0-3,12c0-0.55-1,0.45-1,1
v1c0,0.55,0.45,1,1,1H53z M51,34h-3c0,0,0-9,1-9h2V34z M70.5,37c4.5,0,4.5-6,4.5-6v-3c0,0,0-6-4.5-6S66,28,66,28v3
C66,31,66,37,70.5,37z M70.5,34c-1.561,0-1.5-2-1.5-2v-5c0,0,0-2,1.5-2s1.5,2,1.5,2v5C72,32,72.061,34,70.5,34z M85,37
c0.55,0,1-0.45,1-1V22h-6c0,0-3,0-3,12c0-0.55-1,0.45-1,1v1c0,0.55,0.45,1,1,1H85z M83,34h-3c0,0,0-9,1-9h2V34z M58,29l-3,8h3l2-6
l2,6h3l-3-8l3-7h-3l-2,5l-2-5h-3L58,29z M109,1.5c0,0.83,0.67,1.5,1.5,1.5s1.5-0.67,1.5-1.5S111.33,0,110.5,0S109,0.67,109,1.5z
 M91,18c0,0,0,1,1,1h3c0,0,5,0,5-4.5S95,10,95,10h-1V5c0-0.55-0.45-1-1-1h-1c0,0-1,0-1,1V18z M94,16v-3h2c0,0,1,0.02,1,1.5
S96,16,96,16H94z"></path>
<defs>
<linearGradient id="SVGID_1_" gradientUnits="userSpaceOnUse" x1="3" y1="0" x2="3" y2="115">
<stop offset="0" style="stop-color:#0077FF"></stop>
<stop offset="1" style="stop-color:#124CDC"></stop>
</linearGradient>
</defs>
<path class="sign" fill="url(#SVGID_1_)" d="M7,3c0,0-7,0-7,8s7,8,7,8v19h4V8h3v30h4V3H7z"></path>
</svg>