<?xml version="1.0" standalone="no"?>
<!-- Generator: Adobe Fireworks 10, Export SVG Extension by Aaron Beall (http://fireworks.abeall.com) . Version: 0.6.1  -->
<!DOCTYPE svg PUBLIC "-//W3C//DTD SVG 1.1//EN" "http://www.w3.org/Graphics/SVG/1.1/DTD/svg11.dtd">
<svg id="podhod_logo_narrow_60px.fw-Page%201" viewBox="0 0 2280 810" style="background-color:#ffffff00" version="1.1"
	xmlns="http://www.w3.org/2000/svg" xmlns:xlink="http://www.w3.org/1999/xlink" xml:space="preserve"
	x="0px" y="0px" width="2280px" height="810px"
>
	<g id="Background">
		<path d="M 2154 60 C 2154 79.8825 2170.1174 96.0004 2190 96.0004 C 2209.8826 96.0004 2226 79.8825 2226 60 C 2226 40.1175 2209.8826 23.9996 2190 23.9996 C 2170.1174 23.9996 2154 40.1175 2154 60 ZM 1109.9927 487.9797 L 1170.915 619.9805 L 1098.507 774.1617 C 1095.9375 780 1101.375 780 1101.375 780 L 1158.3751 780 L 1164.2251 780 L 1167.001 773.9859 L 1204.5 692.7448 L 1242.0046 773.9978 C 1244.6251 780 1249.8749 780 1249.8749 780 L 1307.6251 780 C 1314.0001 780 1310.281 773.7103 1310.281 773.7103 L 1238.085 619.9805 L 1299.7865 486.2906 C 1302.7501 480.1877 1295.9999 480 1295.9999 480 L 1242.1875 480 C 1236.5625 480 1233.7076 486.2558 1233.7076 486.2558 L 1204.5 548.4604 L 1175.2245 486.1111 C 1171.3124 479.8123 1167.1875 480 1167.1875 480 L 1113.1874 480 C 1105.3125 480 1109.9927 487.9797 1109.9927 487.9797 ZM 1650 720 L 1585 720 C 1585 720 1583.0625 540 1619.0625 540 L 1650 540 L 1650 720 ZM 1519.6875 780 L 1699.8749 780 C 1709.0625 780 1710 770 1710 770 L 1710 490 C 1710 480.625 1699.6875 480 1699.6875 480 L 1589.0625 480 C 1589.0625 480 1530 465 1530 720 L 1520.0624 720 C 1511.0626 720 1510 730 1510 730 L 1510 770 C 1510 778.6252 1519.6875 780 1519.6875 780 ZM 1408.2404 720 C 1373.7469 720 1375 660 1375 660 L 1375 600 C 1375 600 1372.4329 540 1408.2404 540 C 1444.0479 540 1440 600 1440 600 L 1440 660 C 1440 660 1442.7338 720 1408.2404 720 ZM 1409.0625 780 C 1509.0625 780 1500 660 1500 660 L 1500 600 C 1500 600 1503.9374 480 1409.0625 480 C 1310.0624 480 1320 600 1320 600 L 1320 660 C 1320 660 1313.0625 780 1409.0625 780 ZM 1020 720 L 960 720 C 960 720 954.0001 540 990 540 L 1020 540 L 1020 720 ZM 890.625 780 L 1070.8125 780 C 1080 780 1080 771.3748 1080 771.3748 L 1080 489.375 C 1080 480 1070.625 480 1070.625 480 L 960 480 C 960 480 900 465 900 720 L 890.9999 720 C 882.0001 720 880 730 880 730 L 880 770 C 880 778.6252 890.625 780 890.625 780 ZM 779.1779 720 C 744.6844 720 750 660 750 660 L 750 600 C 750 600 743.3704 540 779.1779 540 C 814.9855 540 810 600 810 600 L 810 660 C 810 660 813.6713 720 779.1779 720 ZM 780 780 C 880.0001 780 870 660 870 660 L 870 600 C 870 600 874.8749 480 780 480 C 680.9999 480 690 600 690 600 L 690 660 C 690 660 684.0001 780 780 780 ZM 487.8749 480 C 487.8749 480 480 479.6246 480 489.375 L 480 770.625 C 480 770.625 480 780 489.7499 780 L 531.7499 780 C 531.7499 780 540 780 540 771.3748 L 540 540 L 600 540 L 600 770.2496 C 600 770.2496 600 780 609.0001 780 L 650.9999 780 C 650.9999 780 660 780 660 770.2496 L 660 489.7504 C 660 489.7504 660 480 649.8749 480 L 487.8749 480 ZM 1320 127.9999 L 1320 411.5625 C 1320 419.5624 1328.6249 420 1328.6249 420 L 1371.5 420 C 1379.8126 420 1380 412.5 1380 412.5 L 1380 230.8951 L 1432.6874 311.8121 C 1440 322.6877 1446.9374 311.8121 1446.9374 311.8121 L 1500 230.8951 L 1500 411.5002 C 1500 420 1509.0001 420 1509.0001 420 L 1551.9998 420 C 1559.8126 420 1560 412.0001 1560 412.0001 L 1560 129.5004 C 1560 120 1551.5 120 1551.5 120 L 1508.5 120 C 1500.3749 120 1494.5251 128.5163 1494.5251 128.5163 L 1440 213.3298 L 1385.1011 127.9349 C 1377.1661 120 1370.9999 120 1370.9999 120 L 1328.0002 120 C 1320 120 1320 127.9999 1320 127.9999 ZM 2100 129.7504 L 2100 411.3748 C 2100 420 2108.6252 420 2108.6252 420 L 2149.8752 420 C 2149.8752 420 2160 420 2160 410.625 L 2160 362.7155 L 2220 301.29 L 2220 410.2496 C 2220 420 2229.75 420 2229.75 420 L 2271.7502 420 C 2280 420 2280 411.3748 2280 411.3748 L 2280 128.9996 C 2280 120 2270.25 120 2270.25 120 L 2229.75 120 C 2219.625 120 2220 129.375 2220 129.375 L 2220 215.7147 L 2160 274.3204 L 2160 129.7504 C 2160 120 2151 120 2151 120 L 2109 120 C 2100 120 2100 129.7504 2100 129.7504 ZM 2018.2517 120 C 2013.6127 120 2009.8517 123.761 2009.8517 128.4 L 2009.8517 411.6 C 2009.8517 416.239 2013.6127 420 2018.2517 420 L 2061.4517 420 C 2066.0908 420 2069.8516 416.239 2069.8516 411.6 L 2069.8516 128.4 C 2069.8516 123.761 2066.0908 120 2061.4517 120 L 2018.2517 120 ZM 1590 128.9996 L 1590 411.3748 C 1590 420 1600.1251 420 1600.1251 420 L 1640.625 420 C 1649.2499 420 1650 410.2496 1650 410.2496 L 1650 300 L 1710 300 L 1710 410.625 C 1710 420 1718.2498 420 1718.2498 420 L 1761.7502 420 C 1769.2502 420 1770 411.0004 1770 411.0004 L 1770 130.5002 C 1770 120 1760.2501 120 1760.2501 120 L 1718.6252 120 C 1709.6251 120 1710 129.375 1710 129.375 L 1710 240 L 1650 240 L 1650 129.375 C 1650 120 1640.625 120 1640.625 120 L 1599.7499 120 C 1590.3749 120 1590 128.9996 1590 128.9996 ZM 1110 129.375 L 1110 210 C 1110 276.0279 1152.1251 300.1661 1186.8672 300.1661 C 1210.3125 300.1661 1230 300 1230 300 C 1230 344.4853 1207.978 360.0502 1190.3119 360.0502 C 1178.4375 360.0502 1170 360 1170 360 L 1120 360 C 1114.4771 360 1110 364.4771 1110 370 L 1110 410 C 1110 415.5229 1114.4771 420 1120 420 L 1200 420 C 1296.7499 420 1290 300 1290 300 L 1290 128.6252 C 1290 120 1282.1251 120 1282.1251 120 L 1238.2501 120 C 1229.6251 120 1230 127.8754 1230 127.8754 L 1230 240 L 1200 240 C 1164.7499 240 1170 210 1170 210 L 1170 127.8754 C 1170 120 1161.75 120 1161.75 120 L 1119.7499 120 C 1110 120 1110 129.375 1110 129.375 ZM 540.022 180.5365 C 540.022 180.5365 612.011 163.5745 612.011 210.4697 C 612.011 258.3618 540 240 540 240 L 540.022 180.5365 ZM 480.033 129.6506 L 480.033 409.5236 C 480.033 420 490.031 420 490.031 420 L 531.5236 420 C 531.5236 420 540.022 419.6255 540.022 410.5216 L 540.022 300.2682 C 540.022 300.2682 672.0001 315.228 672.0001 210.4633 C 672.0001 143.9749 624.427 124.7139 586.4005 119.9384 C 561.0847 116.7592 488.0612 120.2701 488.0612 120.2701 C 479.0332 121.17 480.033 129.6506 480.033 129.6506 ZM 810 360 C 810 360 737.0814 376.4255 737.0814 329.5303 C 737.0814 281.6382 810 300 810 300 L 810 360 ZM 870 410 C 870 405.625 870 210 870 210 C 870 120 758.3098 120 755.0924 120 C 751.875 120 720.997 121.6882 719.0923 126.0004 C 717.5468 129.4992 701.8251 161.6366 695.9496 173.6351 C 694.7351 176.115 695.9875 178.1934 698.7476 178.2778 C 698.7476 178.2778 746.1951 178.2663 754.6875 179.0625 C 764.6875 180 810 182.1875 810 215 C 810 216.8448 809.8347 239.7061 810 240 C 809.8188 239.9641 783.125 239.0625 774.9697 239.9123 C 735.6656 244.0078 677.0924 259.89 677.0924 329.5367 C 677.0924 440.289 809.0703 422.3227 809.0703 422.3227 L 855.0131 420.3351 C 862.8749 420.3351 870 414.375 870 410 ZM 930 420 L 1020 420 C 1020 420 1080 420 1080 330 C 1080 302.4023 1074.3535 283.2678 1066.53 270 C 1074.3535 256.7322 1080 237.5977 1080 210 C 1080 120 1020 120 1020 120 L 930 120 C 904.6729 120 900.6793 158.7881 900.0867 173.9905 C 900 180.3754 906.7499 180 906.7499 180 L 995.9999 180 C 995.9999 180 1020 176.0001 1020 213.0002 C 1020 230.5261 1013.942 237.507 1007.5648 240 L 937.8749 240 C 930 240 930 247.8754 930 247.8754 L 930 292.8754 C 930 300 937.1251 300 937.1251 300 L 1000.215 300 C 1007.0986 300.7819 1020 305.8667 1020 333.0002 C 1020 363.75 992.9999 360 992.9999 360 L 907.5 360 C 899.6251 360 900.0348 364.0659 900.1021 365.994 C 902.0082 420.6995 930 420 930 420 ZM 1859.8737 359.4635 L 1859.8737 299.5972 C 1859.8737 299.5972 1931.8625 281.6382 1931.8625 329.5303 C 1931.8625 376.4255 1859.8737 359.4635 1859.8737 359.4635 ZM 1799.8846 405.3494 C 1799.8846 405.3494 1800.3571 413.3661 1807.9128 414.7299 C 1815.4688 416.0938 1856.7188 420 1860 420 C 1863.2813 420 1868.6847 419.9938 1880 420 C 1916.3942 420.0198 1991.8516 411.0218 1991.8516 326.5375 C 1991.8516 221.7719 1859.8737 239.7318 1859.8737 239.7318 L 1859.8737 129.4784 C 1859.8737 120.3744 1851.3748 120 1851.3748 120 L 1809.8822 120 C 1809.8822 120 1799.8846 120 1799.8846 130.4764 L 1799.8846 405.3494 Z" fill="#000000"/>
		<path d="M 151.6667 90.0009 C 151.6667 90.0009 0 88.0723 0 254.572 C 0 424.286 150 440 150 440 L 150 810 L 240 810 L 240 180 L 300 180 L 300 810 L 390 810 L 390 90.0009 L 151.6667 90.0009 Z" fill="#0077ff"/>
	</g>
</svg>