<svg id="podhod-logo-en" viewBox="0 0 81 17" version="1.1" xmlns="http://www.w3.org/2000/svg" xmlns:xlink="http://www.w3.org/1999/xlink" xml:space="preserve" x="0px" y="0px" width="81px" height="17px" alt="Podhod.com" fill="#ffffff">
<g id="podhod-logo-en-group">
<path id="podhod-logo-en-text" d="M 81 8.4646 C 80.996 1.3231 76.8468 1 75.1412 1 L 73 1 C 72.4477 1 72 1.4477 72 2 L 72 15 C 72 15.5523 72.4477 16 73 16 L 75.0921 16 C 76.7266 16 80.996 15.6061 81 8.4646 ZM 78.0038 8.4646 C 78.0038 9.6466 77.9074 12.9988 74.9991 12.9988 L 74.9991 4.0012 C 77.9074 4.0012 78.0038 7.2826 78.0038 8.4646 ZM 48 8.4646 C 47.996 1.3231 43.8468 1 42.1412 1 L 40 1 C 39.4477 1 39 1.4477 39 2 L 39 15 C 39 15.5523 39.4477 16 40 16 L 42.0921 16 C 43.7266 16 47.996 15.6061 48 8.4646 ZM 45.0038 8.4646 C 45.0038 9.6466 44.9074 12.9988 41.9991 12.9988 L 41.9991 4.0012 C 44.9074 4.0012 45.0038 7.2826 45.0038 8.4646 ZM 65.5 13 C 63.9375 13 63.9844 11.0313 63.9844 11.0313 L 63.9844 6.0313 C 63.9844 6.0313 63.875 4 65.5 4 C 67.125 4 67 6 67 6 L 67 11 C 67 11 67.0625 13 65.5 13 ZM 65.5 16 C 70.0625 16 70 10 70 10 L 70 7 C 70 7 70 1 65.5 1 C 61 1 61 7 61 7 L 61 10 C 61 10 60.9375 16 65.5 16 ZM 32.5 13 C 30.9375 13 30.9844 11 30.9844 11 L 30.9844 6 C 30.9844 6 30.875 4 32.5 4 C 34.125 4 34 6 34 6 L 34 11 C 34 11 34.0625 13 32.5 13 ZM 32.5 16 C 37.0625 16 37 10 37 10 L 37 7 C 37 7 37 1 32.5 1 C 28 1 28 7 28 7 L 28 10 C 28 10 27.9375 16 32.5 16 ZM 50 15 C 50 16 51 16 51 16 L 51.9844 16 C 52.9844 16 52.9844 15 52.9844 15 L 52.9844 9.9688 L 56 9.9688 L 56 15 C 56 16 57 16 57 16 L 58 16 C 58.9844 16 59 15 59 15 L 59 2 C 59 1.4477 58.5523 1 58 1 L 57 1 C 56.4477 1 56 1.4477 56 2 L 56 7 L 52.9844 7 L 52.9844 2 C 52.9844 1.4477 52.5367 1 51.9844 1 L 51 1 C 50.4477 1 50 1.4477 50 2 L 50 15 ZM 19.9531 3.9688 L 22.9844 3.9688 C 22.9844 3.9688 24 4.0156 24 5.5 C 24 6.9844 23 7 23 7 L 19.9688 7 L 19.9531 3.9688 ZM 17 2 L 17 15 C 17 16 18 16 18 16 L 18.9688 16 C 19.521 16 19.9688 15.5523 19.9688 15 L 19.9688 9.9688 L 22 9.9688 C 22 9.9688 27 10 27 5.5 C 27 1 22 1 22 1 L 18 1 C 17 1 17 2 17 2 Z" fill="#000000"/>
<path id="podhod-logo-en-sign" d="M 5 10 L 5 17 L 7.9688 17 L 7.9688 2.9688 L 10 2.9688 L 10 17 L 13 17 L 13 0 L 5 0 L 5 0 C 2.271 0 0 2.2615 0 5 C 0 7.7385 2.271 10 5 10 L 5 10 Z" fill="#0077ff"/>
</g>
</svg>