<svg id="podhod_logo_en" viewBox="0 0 110 24" version="1.1"
xmlns="http://www.w3.org/2000/svg" xmlns:xlink="http://www.w3.org/1999/xlink" xml:space="preserve" x="0px" y="0px" width="110px" height="24px" class="podhod_logo_en">
<path class="podhod_logo_en_text" d="M 110 11.9528 C 109.9948 2.4307 104.4624 2 102.1883 2 C 99.9141 2 98.6655 2.1313 98.6655 2.1313 C 98.6655 2.1313 98 2.2993 98 2.9198 L 98 21.0802 C 98 21.7007 98.6655 21.8687 98.6655 21.8687 C 98.6655 21.8687 99.9435 22 102.1228 22 C 104.3022 22 109.9948 21.4749 110 11.9528 ZM 102.4183 6.0016 C 105.8766 6.0016 106.005 10.3768 106.005 11.9528 C 106.005 13.5288 105.8766 17.9984 102.4183 17.9984 C 102.4183 17.9984 101.9987 18.0394 101.9987 17.5387 L 101.9987 6.4613 C 101.9987 5.9606 102.4183 6.0016 102.4183 6.0016 ZM 65 11.9528 C 64.9947 2.4307 59.4624 2 57.1883 2 C 54.9141 2 53.6655 2.1313 53.6655 2.1313 C 53.6655 2.1313 53 2.2993 53 2.9198 L 53 21.0802 C 53 21.7007 53.6655 21.8687 53.6655 21.8687 C 53.6655 21.8687 54.9435 22 57.1228 22 C 59.3022 22 64.9947 21.4749 65 11.9528 ZM 57.4183 6.0016 C 60.8766 6.0016 61.005 10.3768 61.005 11.9528 C 61.005 13.5288 60.8766 17.9984 57.4183 17.9984 C 57.4183 17.9984 56.9987 18.0394 56.9987 17.5387 L 56.9987 6.4613 C 56.9987 5.9606 57.4183 6.0016 57.4183 6.0016 ZM 88.9452 18 C 86.6456 18 87 14 87 14 L 87 10 C 87 10 86.558 6 88.9452 6 C 91.3324 6 91 10 91 10 L 91 14 C 91 14 91.2448 18 88.9452 18 ZM 89 22 C 95.6667 22 95 14 95 14 L 95 10 C 95 10 95.325 2 89 2 C 82.4 2 83 10 83 10 L 83 14 C 83 14 82.6 22 89 22 ZM 43.9452 18 C 41.6456 18 42 14 42 14 L 42 10 C 42 10 41.558 6 43.9452 6 C 46.3324 6 46 10 46 10 L 46 14 C 46 14 46.2448 18 43.9452 18 ZM 44 22 C 50.6667 22 50 14 50 14 L 50 10 C 50 10 50.325 2 44 2 C 37.4 2 38 10 38 10 L 38 14 C 38 14 37.6 22 44 22 ZM 68 2.6 L 68 21.425 C 68 22 68.675 22 68.675 22 L 71.375 22 C 71.95 22 72 21.35 72 21.35 L 72 14 L 76 14 L 76 21.375 C 76 22 76.55 22 76.55 22 L 79.45 22 C 79.95 22 80 21.4 80 21.4 L 80 2.7 C 80 2 79.35 2 79.35 2 L 76.575 2 C 75.975 2 76 2.625 76 2.625 L 76 10 L 72 10 L 72 2.625 C 72 2 71.375 2 71.375 2 L 68.65 2 C 68.025 2 68 2.6 68 2.6 ZM 27.0015 6.0358 C 27.0015 6.0358 31.8007 4.905 31.8007 8.0313 C 31.8007 11.2241 27 10 27 10 L 27.0015 6.0358 ZM 23.0022 2.6434 L 23.0022 21.3016 C 23.0022 22 23.6687 22 23.6687 22 L 26.4349 22 C 26.4349 22 27.0015 21.975 27.0015 21.3681 L 27.0015 14.0179 C 27.0015 14.0179 35.8 15.0152 35.8 8.0309 C 35.8 0.6474 27 2 27 2 L 23.5374 2.018 C 22.9355 2.078 23.0022 2.6434 23.0022 2.6434 Z" fill="#000000"/>
<path class="podhod_logo_en_sign" d="M 7.055 14 L 7.0556 24 L 11 24 L 11 4 L 14 4 L 14 24 L 18 24 L 18 0 L 7.0556 0 L 7 0 C 3.134 0 0 3.134 0 7 C 0 10.866 3.134 14 7 14 L 7.055 14 Z" fill="#0077ff"/>
</svg>