<?xml version="1.0" standalone="no"?>
<!-- Generator: Adobe Fireworks 10, Export SVG Extension by Aaron Beall (http://fireworks.abeall.com) . Version: 0.6.1  -->
<!DOCTYPE svg PUBLIC "-//W3C//DTD SVG 1.1//EN" "http://www.w3.org/Graphics/SVG/1.1/DTD/svg11.dtd">
<svg id="podhod_userpic.fw-Page%201" viewBox="0 0 512 512" style="background-color:#0177ff" version="1.1"
	xmlns="http://www.w3.org/2000/svg" xmlns:xlink="http://www.w3.org/1999/xlink" xml:space="preserve"
	x="0px" y="0px" width="512px" height="512px"
>
	<g id="Background">
		<rect x="0" y="0" width="512" height="512" fill="#0177ff"/>
		<path d="M 353.3333 97.3333 C 353.3333 134.6667 329.3333 185.3333 276 185.3333 C 228 185.3333 201.3333 126.6667 201.3333 100 C 201.3333 57.3333 238.6667 14.6667 278.6667 14.6667 C 329.3333 14.6667 353.3333 57.3333 353.3333 97.3333 ZM 366.6667 214.6667 C 372 230.6667 372 260 372 268 L 365.3333 512 L 290.6667 512 L 289.3333 342.6667 C 284.672 342.528 257.3333 340 249.3333 350.6667 C 248.6667 368 246.6667 396 246.6667 401.3333 C 246.6667 409.3333 242.6667 490.6667 242.6667 512 L 173.3333 512 C 173.3333 498.6667 174.6667 468 174.6667 462.6667 C 174.6667 452 78.6667 430.6667 78.6667 342.6667 C 78.6667 214.6667 220 209.3333 289.3333 209.3333 C 297.3333 209.3333 342.6667 212 366.6667 214.6667 ZM 182.6667 388 C 152.8889 385.7778 142.6667 345.3333 142.6667 332 C 142.6667 313.3333 160 281.7778 182.6667 278.6667 L 182.6667 388 Z" fill="#ffffff"/>
	</g>
	<g id="Layer%201">
	</g>
</svg>