<?xml version="1.0" standalone="no"?>
<!-- Generator: Adobe Fireworks 10, Export SVG Extension by Aaron Beall (http://fireworks.abeall.com) . Version: 0.6.1  -->
<!DOCTYPE svg PUBLIC "-//W3C//DTD SVG 1.1//EN" "http://www.w3.org/Graphics/SVG/1.1/DTD/svg11.dtd">
<svg id="podhod_userpic_blue_circle.fw-Page%201" viewBox="0 0 512 512" style="background-color:#ffffff00" version="1.1"
	xmlns="http://www.w3.org/2000/svg" xmlns:xlink="http://www.w3.org/1999/xlink" xml:space="preserve"
	x="0px" y="0px" width="512px" height="512px"
>
	<g id="Background">
		<path id="Ellipse" d="M 0 256 C 0 114.6133 114.6133 0 256 0 C 397.3867 0 512 114.6133 512 256 C 512 397.3867 397.3867 512 256 512 C 114.6133 512 0 397.3867 0 256 Z" fill="#0177ff"/>
		<path d="M 353.3333 97.3333 C 353.3333 57.3333 329.3333 14.6667 278.6667 14.6667 C 238.6667 14.6667 201.3333 57.3333 201.3333 100 C 201.3333 126.6667 228 185.3333 276 185.3333 C 329.3333 185.3333 353.3333 134.6667 353.3333 97.3333 ZM 182.6667 388 C 152.8889 385.7778 142.6667 345.3333 142.6667 332 C 142.6667 313.3333 160 281.7778 182.6667 278.6667 L 182.6667 388 ZM 173.568 498.4371 C 195.4236 505.8658 218.6067 510.422 242.6675 511.657 C 242.7091 489.812 246.6667 409.2913 246.6667 401.3333 C 246.6667 396 248.6667 368 249.3333 350.6667 C 257.3333 340 284.672 342.528 289.3333 342.6667 L 290.647 509.6755 C 317.2878 506.0711 342.6253 498.3691 366.0083 487.2243 L 372 268 C 372 260 372 230.6667 366.6667 214.6667 C 342.6667 212 297.3333 209.3333 289.3333 209.3333 C 220 209.3333 78.6667 214.6667 78.6667 342.6667 C 78.6667 430.6667 174.6667 452 174.6667 462.6667 C 174.6667 466.5773 173.9505 484.106 173.568 498.4371 Z" fill="#ffffff"/>
	</g>
	<g id="Layer%201">
	</g>
</svg>